<svg width="1080" height="1080" viewBox="0 0 1080 1080" fill="none" xmlns="http://www.w3.org/2000/svg">
<rect width="1080" height="1080" fill="#060606"/>
<path d="M747.728 424.5H701.552V332.149C701.552 319.466 691.209 309 678.403 309H401.351C388.668 309 378.201 319.343 378.201 332.149V424.5H332.149C319.466 424.5 309 434.597 309 447.649V632.351C309 645.034 319.343 655.5 332.149 655.5H378.325V747.604C378.325 760.287 388.668 770.754 401.474 770.754H678.526C691.209 770.754 701.675 760.41 701.675 747.604V655.5H747.851C760.534 655.5 771 645.157 771 632.351V447.649C770.754 434.72 760.41 424.5 747.728 424.5ZM655.377 724.455H424.5V586.175H655.377V724.455ZM655.377 424.5H424.5V355.175H655.377V424.5ZM701.552 516.851C688.869 516.851 678.403 506.507 678.403 493.701C678.403 480.772 688.746 470.552 701.552 470.552C714.235 470.552 724.701 480.649 724.701 493.701C724.578 506.507 714.235 516.851 701.552 516.851Z" fill="#9EFF52"/>
<path d="M535.059 453.295C535.059 456.024 537.271 458.236 540 458.236C542.729 458.236 544.941 456.024 544.941 453.295C544.941 450.566 542.729 448.354 540 448.354C537.271 448.354 535.059 450.566 535.059 453.295Z" fill="#9EFF52"/>
<path d="M594.352 552.118C594.352 522.148 569.969 497.765 539.999 497.765C510.029 497.765 485.646 522.147 485.646 552.118C485.646 582.088 510.029 606.471 539.999 606.471C569.969 606.471 594.352 582.088 594.352 552.118ZM544.939 552.362C544.808 563.148 535.992 571.882 525.175 571.882C516.309 571.882 508.787 566.013 506.291 557.957C506.127 557.429 505.654 557.059 505.102 557.059L500.638 557.059C498.007 557.059 495.709 555.073 495.539 552.447C495.352 549.569 497.631 547.176 500.469 547.176L505.082 547.176C505.626 547.176 506.12 546.832 506.28 546.313C508.731 538.351 516.086 532.518 524.804 532.356C527.553 532.305 529.993 534.327 530.111 537.074C530.234 539.903 527.976 542.235 525.175 542.235C519.569 542.235 515.039 546.926 515.304 552.589C515.539 557.617 519.676 561.753 524.703 561.988C530.365 562.253 535.057 557.723 535.057 552.117C535.057 541.219 543.924 532.352 554.822 532.352C563.688 532.352 571.21 538.221 573.707 546.278C573.87 546.805 574.343 547.176 574.895 547.176L579.359 547.176C581.991 547.176 584.288 549.162 584.459 551.788C584.645 554.665 582.366 557.058 579.528 557.058L574.915 557.058C574.371 557.058 573.877 557.402 573.717 557.922C571.266 565.884 563.911 571.717 555.193 571.879C552.444 571.929 550.005 569.907 549.886 567.16C549.764 564.332 552.021 562 554.822 562C560.271 562 564.705 557.566 564.705 552.118C564.705 546.634 560.214 542.178 554.716 542.236C549.262 542.293 545.005 546.907 544.939 552.362Z" fill="#9EFF52"/>
<path d="M624 695.412L624 408.824C624 400.65 617.35 394 609.176 394L470.824 394C462.65 394 456 400.65 456 408.824L456 695.412C456 703.585 462.65 710.235 470.824 710.235L609.176 710.235C617.35 710.235 624 703.585 624 695.412ZM475.765 497.765L475.765 433.529C475.765 430.814 477.955 428.578 480.67 428.588C486.147 428.608 490.608 424.147 490.588 418.67C490.578 415.955 492.814 413.765 495.529 413.765L584.471 413.765C587.186 413.765 589.422 415.955 589.412 418.67C589.392 424.147 593.853 428.608 599.33 428.588C602.045 428.578 604.235 430.814 604.235 433.529L604.235 497.595C604.235 500.227 602.25 502.525 599.623 502.695C596.746 502.882 594.353 500.603 594.353 497.765L594.353 439.224C594.353 438.426 593.84 437.722 593.082 437.471C587.172 435.509 582.49 430.828 580.529 424.918C580.278 424.16 579.574 423.647 578.776 423.647L501.225 423.647C500.427 423.647 499.723 424.16 499.471 424.918C497.51 430.828 492.828 435.51 486.918 437.471C486.161 437.722 485.648 438.426 485.648 439.224L485.648 497.595C485.648 500.227 483.662 502.524 481.036 502.695C478.157 502.882 475.765 500.602 475.765 497.765ZM540 468.118C531.827 468.118 525.176 461.467 525.176 453.294C525.176 445.121 531.827 438.471 540 438.471C548.173 438.471 554.824 445.121 554.824 453.294C554.824 461.467 548.174 468.118 540 468.118ZM475.765 552.118C475.765 516.698 504.58 487.882 540 487.882C575.42 487.882 604.235 516.698 604.235 552.118C604.235 587.537 575.42 616.353 540 616.353C504.58 616.353 475.765 587.537 475.765 552.118ZM495.529 690.471C492.814 690.471 490.578 688.28 490.588 685.565C490.608 680.088 486.147 675.627 480.67 675.647C477.955 675.657 475.765 673.421 475.765 670.706L475.765 606.64C475.765 604.008 477.75 601.71 480.377 601.54C483.254 601.353 485.647 603.633 485.647 606.471L485.647 665.011C485.647 665.809 486.16 666.513 486.918 666.765C492.828 668.726 497.51 673.407 499.471 679.318C499.722 680.075 500.426 680.588 501.224 680.588L578.776 680.588C579.574 680.588 580.278 680.076 580.529 679.318C582.491 673.407 587.172 668.726 593.082 666.765C593.84 666.513 594.353 665.809 594.353 665.011L594.353 606.64C594.353 604.009 596.339 601.711 598.965 601.541C601.843 601.354 604.235 603.633 604.235 606.471L604.235 670.707C604.235 673.422 602.045 675.658 599.33 675.648C593.853 675.628 589.392 680.089 589.412 685.566C589.422 688.281 587.186 690.471 584.471 690.471L495.529 690.471L495.529 690.471ZM540 636.118C548.173 636.118 554.824 642.768 554.824 650.941C554.824 659.115 548.173 665.765 540 665.765C531.827 665.765 525.176 659.115 525.176 650.941C525.176 642.768 531.827 636.118 540 636.118Z" fill="#9EFF52"/>
<path d="M535.059 650.941C535.059 653.67 537.271 655.882 540 655.882C542.729 655.882 544.941 653.67 544.941 650.941C544.941 648.212 542.729 646 540 646C537.271 646 535.059 648.212 535.059 650.941Z" fill="#9EFF52"/>
<rect x="424" y="354" width="232" height="71" fill="#060606"/>
<path d="M441 593H641.5" stroke="black" stroke-width="14"/>
</svg>
