<svg width="1004" height="690" viewBox="0 0 1004 690" fill="none" xmlns="http://www.w3.org/2000/svg">
<path d="M-187.429 516.454C247.472 206.911 287.786 195.496 -66.4882 482.209C-420.762 768.922 -380.448 757.507 54.4525 447.965C489.353 138.422 529.667 127.007 175.393 413.72C-178.881 700.433 -138.567 689.018 296.334 379.475C731.235 69.9326 771.549 58.5177 417.275 345.231C63.0009 631.944 103.314 620.529 538.215 310.986C973.116 1.44325 1013.43 -9.97165 659.156 276.741C304.882 563.454 345.196 552.039 780.097 242.497C1215 -67.0461 1255.31 -78.461 901.038 208.252C546.764 494.965 587.077 483.55 1021.98 174.007" stroke="#9EFF52" stroke-width="1.71755"/>
</svg>
