<svg width="80" height="139" viewBox="0 0 80 139" fill="none" xmlns="http://www.w3.org/2000/svg">
<path d="M43.9964 42.8011C53.526 52.2281 61.8018 62.9644 67.4782 72.6806C70.3171 77.54 72.4903 82.1176 73.8494 86.1289C75.2076 90.1377 75.7366 93.529 75.3483 96.0994C74.96 98.6697 73.6771 100.269 71.6183 100.897C69.5582 101.526 66.7469 101.173 63.3688 99.8823C56.6144 97.3016 47.6684 91.0016 38.1388 81.5746C28.6092 72.1476 20.3334 61.4113 14.6571 51.6951C11.8181 46.8357 9.64494 42.2581 8.28586 38.2467C6.92767 34.238 6.3986 30.8466 6.78691 28.2763C7.17522 25.7059 8.45817 24.107 10.5169 23.4785C12.577 22.8495 15.3884 23.2027 18.7665 24.4934C25.5208 27.0741 34.4668 33.3741 43.9964 42.8011Z" stroke="#9EFF52"/>
<path d="M43.1281 49.8587C52.6582 59.2823 60.9345 70.0156 66.6112 79.7295C69.4504 84.5878 71.6237 89.1646 72.9828 93.1753C74.3411 97.1834 74.8702 100.574 74.4819 103.145C74.0936 105.715 72.8106 107.314 70.7518 107.944C68.6916 108.573 65.8801 108.221 62.5018 106.931C55.7471 104.353 46.8006 98.0558 37.2705 88.6322C27.7404 79.2086 19.4641 68.4754 13.7874 58.7614C10.9483 53.9031 8.77496 49.3263 7.41579 45.3156C6.0575 41.3075 5.52838 37.9165 5.91669 35.3461C6.305 32.7757 7.588 31.1765 9.64686 30.5474C11.7071 29.9178 14.5185 30.2701 17.8968 31.5597C24.6515 34.1382 33.598 40.4351 43.1281 49.8587Z" stroke="#9EFF52"/>
<path d="M45.1184 35.3755C54.648 44.8025 62.9238 55.5389 68.6001 65.255C71.4391 70.1144 73.6122 74.6921 74.9713 78.7034C76.3295 82.7121 76.8586 86.1035 76.4703 88.6739C76.082 91.2442 74.799 92.8431 72.7402 93.4716C70.6802 94.1006 67.8688 93.7474 64.4907 92.4567C57.7364 89.876 48.7904 83.576 39.2608 74.149C29.7312 64.7221 21.4554 53.9857 15.779 44.2696C12.94 39.4101 10.7669 34.8325 9.40781 30.8212C8.04961 26.8125 7.52055 23.4211 7.90886 20.8507C8.29717 18.2804 9.58012 16.6815 11.6389 16.0529C13.699 15.424 16.5103 15.7772 19.8884 17.0679C26.6428 19.6486 35.5888 25.9486 45.1184 35.3755Z" stroke="#9EFF52"/>
<path d="M41.6088 56.9128C51.1384 66.3397 59.4142 77.0761 65.0906 86.7923C67.9296 91.6517 70.1027 96.2293 71.4618 100.241C72.82 104.249 73.3491 107.641 72.9608 110.211C72.5724 112.781 71.2895 114.38 69.2307 115.009C67.1706 115.638 64.3593 115.285 60.9812 113.994C54.2268 111.413 45.2808 105.113 35.7513 95.6863C26.2217 86.2593 17.9459 75.523 12.2695 65.8068C9.43053 60.9474 7.25737 56.3698 5.89829 52.3584C4.54009 48.3497 4.01103 44.9583 4.39934 42.388C4.78765 39.8176 6.0706 38.2187 8.12936 37.5902C10.1895 36.9612 13.0008 37.3144 16.3789 38.6051C23.1332 41.1858 32.0793 47.4858 41.6088 56.9128Z" stroke="#9EFF52"/>
<path d="M40.7405 63.9691C50.2707 73.3926 58.5469 84.1259 64.2237 93.8399C67.0628 98.6982 69.2361 103.275 70.5953 107.286C71.9536 111.294 72.4827 114.685 72.0944 117.255C71.7061 119.826 70.4231 121.425 68.3642 122.054C66.304 122.683 63.4925 122.331 60.1143 121.042C53.3596 118.463 44.4131 112.166 34.8829 102.743C25.3528 93.319 17.0765 82.5857 11.3998 72.8717C8.56069 68.0134 6.38739 63.4367 5.02822 59.426C3.66992 55.4179 3.14081 52.0268 3.52912 49.4565C3.91743 46.8861 5.20043 45.2869 7.25929 44.6577C9.31948 44.0281 12.131 44.3805 15.5092 45.6701C22.2639 48.2485 31.2104 54.5455 40.7405 63.9691Z" stroke="#9EFF52"/>
<path d="M42.7308 49.4875C52.2604 58.9145 60.5362 69.6508 66.2126 79.367C69.0515 84.2264 71.2247 88.804 72.5837 92.8153C73.9419 96.8241 74.471 100.215 74.0827 102.786C73.6944 105.356 72.4114 106.955 70.3527 107.584C68.2926 108.213 65.4812 107.859 62.1031 106.569C55.3488 103.988 46.4028 97.688 36.8732 88.261C27.3436 78.834 19.0678 68.0977 13.3914 58.3815C10.5525 53.5221 8.37932 48.9445 7.02024 44.9332C5.66204 40.9244 5.13298 37.533 5.52129 34.9627C5.9096 32.3923 7.19255 30.7934 9.25131 30.1649C11.3114 29.5359 14.1228 29.8891 17.5008 31.1798C24.2552 33.7605 33.2012 40.0605 42.7308 49.4875Z" stroke="#9EFF52"/>
</svg>
