<svg width="50" height="50" viewBox="0 0 50 50" fill="none" xmlns="http://www.w3.org/2000/svg">
<path d="M47.4813 12.5067H42.484V2.50667C42.484 1.13333 41.3646 0 39.9787 0H9.99467C8.62207 0 7.48934 1.12 7.48934 2.50667V12.5067H2.50533C1.13273 12.5067 0 13.6 0 15.0133V35.0133C0 36.3867 1.1194 37.52 2.50533 37.52H7.50267V47.4933C7.50267 48.8667 8.62207 50 10.008 50H39.992C41.3646 50 42.4973 48.88 42.4973 47.4933V37.52H47.4947C48.8673 37.52 50 36.4 50 35.0133V15.0133C49.9734 13.6133 48.8539 12.5067 47.4813 12.5067ZM37.4867 44.9867H12.5V30.0133H37.4867V44.9867ZM37.4867 12.5067H12.5V5H37.4867V12.5067ZM42.484 22.5067C41.1114 22.5067 39.9787 21.3867 39.9787 20C39.9787 18.6 41.0981 17.4933 42.484 17.4933C43.8566 17.4933 44.9893 18.5867 44.9893 20C44.976 21.3867 43.8566 22.5067 42.484 22.5067Z" fill="#9EFF52"/>
<path fill-rule="evenodd" clip-rule="evenodd" d="M15.9092 12.5608L15.9092 41.8417C15.9092 42.7268 16.6289 43.4469 17.5135 43.4469H32.4867C33.3713 43.4469 34.091 42.7268 34.091 41.8417L34.091 12.5608H30.5933C30.7904 12.7989 31.0884 12.9505 31.4211 12.9493C31.7149 12.9483 31.952 13.1904 31.952 13.4844V20.4216C31.952 20.7066 31.7371 20.9554 31.4528 20.9739C31.1414 20.9941 30.8824 20.7473 30.8824 20.4399L30.8824 14.101C30.8824 14.0146 30.827 13.9384 30.7449 13.9111C30.1082 13.6997 29.6033 13.1965 29.3894 12.5608H20.6109C20.3968 13.1966 19.892 13.6998 19.2553 13.9111C19.1734 13.9384 19.1178 14.0146 19.1178 14.101L19.1178 20.4216C19.1178 20.7065 18.9029 20.9553 18.6187 20.9738C18.3072 20.9941 18.0482 20.7472 18.0482 20.4399L18.0482 13.4844C18.0482 13.1904 18.2853 12.9483 18.5791 12.9493C18.9118 12.9505 19.2098 12.7989 19.4069 12.5608H15.9092ZM23.3958 15.6245C23.3958 16.5096 24.1155 17.2297 25.0001 17.2297C25.8847 17.2297 26.6044 16.5096 26.6044 15.6245C26.6044 14.7395 25.8847 14.0194 25.0001 14.0194C24.1155 14.0194 23.3958 14.7395 23.3958 15.6245ZM25.0001 19.3699C21.1668 19.3699 18.0482 22.4901 18.0482 26.3254C18.0482 30.1608 21.1668 33.281 25.0001 33.281C28.8334 33.281 31.952 30.1608 31.952 26.3254C31.952 22.4901 28.8334 19.3699 25.0001 19.3699ZM19.6525 40.7755C19.6514 41.0695 19.8934 41.3067 20.1873 41.3067V41.3068H29.8129C30.1068 41.3068 30.3488 41.0696 30.3477 40.7756C30.3455 40.1825 30.8283 39.6995 31.4211 39.7016C31.7149 39.7027 31.952 39.4606 31.952 39.1666V32.211C31.952 31.9037 31.693 31.6569 31.3816 31.6771C31.0974 31.6955 30.8824 31.9443 30.8824 32.2293L30.8824 38.5499C30.8824 38.6363 30.8269 38.7125 30.7449 38.7397C30.1053 38.9521 29.5987 39.459 29.3864 40.099C29.3592 40.1811 29.283 40.2366 29.1966 40.2366H20.8036C20.7172 40.2366 20.641 40.181 20.6138 40.099C20.4016 39.459 19.8949 38.9522 19.2552 38.7397C19.1732 38.7125 19.1177 38.6363 19.1177 38.5499L19.1177 32.2109C19.1177 31.9036 18.8588 31.6568 18.5473 31.677C18.2631 31.6955 18.0482 31.9443 18.0482 32.2293L18.0482 39.1665C18.0482 39.4605 18.2852 39.7026 18.5791 39.7016C19.1719 39.6994 19.6546 40.1824 19.6525 40.7755ZM26.6044 37.0263C26.6044 36.1413 25.8846 35.4212 25.0001 35.4212C24.1155 35.4212 23.3958 36.1413 23.3958 37.0263C23.3958 37.9114 24.1155 38.6315 25.0001 38.6315C25.8846 38.6315 26.6044 37.9114 26.6044 37.0263ZM30.8823 26.3253C30.8823 23.0801 28.2434 20.4398 24.9999 20.4398C21.7564 20.4398 19.1176 23.0801 19.1176 26.3253C19.1176 29.5706 21.7564 32.2108 24.9999 32.2108C28.2434 32.2108 30.8823 29.5706 30.8823 26.3253ZM25.5345 26.3518C25.5204 27.5197 24.5663 28.4655 23.3956 28.4655C22.4361 28.4655 21.622 27.83 21.3519 26.9576C21.3341 26.9005 21.283 26.8604 21.2232 26.8604H20.7402C20.4553 26.8604 20.2067 26.6454 20.1882 26.361C20.168 26.0494 20.4147 25.7903 20.7218 25.7903H21.2211C21.2799 25.7903 21.3334 25.753 21.3507 25.6968C21.616 24.8346 22.412 24.203 23.3555 24.1855C23.653 24.18 23.917 24.399 23.9299 24.6964C23.9431 25.0027 23.6988 25.2552 23.3956 25.2552C22.789 25.2552 22.2986 25.7632 22.3273 26.3764C22.3528 26.9208 22.8004 27.3687 23.3445 27.3942C23.9573 27.4228 24.4652 26.9323 24.4652 26.3253C24.4652 25.1452 25.4247 24.1851 26.6042 24.1851C27.5638 24.1851 28.3778 24.8206 28.648 25.693C28.6657 25.7501 28.7168 25.7902 28.7766 25.7902H29.2597C29.5445 25.7902 29.7932 26.0052 29.8116 26.2896C29.8318 26.6012 29.5851 26.8603 29.278 26.8603H28.7787C28.7199 26.8603 28.6664 26.8976 28.6491 26.9538C28.3839 27.816 27.5878 28.4476 26.6444 28.4651C26.3468 28.4706 26.0828 28.2516 26.07 27.9542C26.0567 27.6479 26.3011 27.3954 26.6042 27.3954C27.1939 27.3954 27.6737 26.9154 27.6737 26.3253C27.6737 25.7315 27.1877 25.249 26.5927 25.2553C26.0025 25.2615 25.5417 25.7611 25.5345 26.3518ZM24.4648 15.6246C24.4648 15.92 24.7044 16.1596 24.9999 16.1596C25.2954 16.1596 25.5349 15.92 25.5349 15.6246C25.5349 15.3291 25.2954 15.0895 24.9999 15.0895C24.7044 15.0895 24.4648 15.3291 24.4648 15.6246ZM24.4648 37.0262C24.4648 37.3217 24.7044 37.5612 24.9999 37.5612C25.2954 37.5612 25.5349 37.3217 25.5349 37.0262C25.5349 36.7307 25.2954 36.4911 24.9999 36.4911C24.7044 36.4911 24.4648 36.7307 24.4648 37.0262Z" fill="#9EFF52"/>
</svg>
