<svg width="92" height="167" viewBox="0 0 92 167" fill="none" xmlns="http://www.w3.org/2000/svg">
<path d="M25.0343 76.5451C31.726 55.9281 39.2095 38.0431 45.8939 25.7944C49.2379 19.6665 52.3704 14.9711 55.0913 12.049C56.453 10.5865 57.6926 9.58926 58.7853 9.07029C59.8796 8.55055 60.7673 8.53627 61.4759 8.91693C62.1846 9.29759 62.8007 10.1197 63.2828 11.4862C63.7642 12.8508 64.0845 14.6859 64.2335 16.9599C64.5312 21.5036 64.138 27.6705 63.1019 35.0381C61.0308 49.7649 56.406 69.1856 49.7143 89.8026C43.0227 110.42 35.5391 128.305 28.8548 140.553C25.5107 146.681 22.3783 151.377 19.6574 154.299C18.2956 155.761 17.0561 156.758 15.9634 157.277C14.869 157.797 13.9814 157.811 13.2727 157.431C12.5641 157.05 11.9479 156.228 11.4658 154.861C10.9844 153.497 10.6642 151.662 10.5152 149.388C10.2175 144.844 10.6106 138.677 11.6468 131.31C13.7179 116.583 18.3426 97.1622 25.0343 76.5451Z" stroke="white"/>
<path d="M29.1073 76.5447C35.799 55.9276 43.2825 38.0426 49.9668 25.7939C53.3109 19.6661 56.4434 14.9706 59.1643 12.0485C60.526 10.586 61.7656 9.58877 62.8583 9.0698C63.9526 8.55007 64.8403 8.53578 65.5489 8.91644C66.2576 9.29711 66.8737 10.1192 67.3558 11.4858C67.8372 12.8503 68.1575 14.6854 68.3065 16.9594C68.6042 21.5031 68.211 27.67 67.1749 35.0376C65.1038 49.7644 60.479 69.1851 53.7873 89.8021C47.0957 110.419 39.6121 128.304 32.9278 140.553C29.5837 146.681 26.4513 151.376 23.7304 154.298C22.3686 155.761 21.1291 156.758 20.0364 157.277C18.942 157.797 18.0544 157.811 17.3457 157.43C16.6371 157.05 16.0209 156.228 15.5388 154.861C15.0574 153.496 14.7372 151.661 14.5882 149.387C14.2905 144.844 14.6836 138.677 15.7198 131.309C17.7909 116.582 22.4156 97.1617 29.1073 76.5447Z" stroke="white"/>
<path d="M33.1803 76.5449C39.872 55.9279 47.3555 38.0428 54.0398 25.7942C57.3839 19.6663 60.5164 14.9709 63.2373 12.0487C64.599 10.5863 65.8386 9.58901 66.9313 9.07004C68.0256 8.55031 68.9133 8.53602 69.6219 8.91669C70.3306 9.29735 70.9467 10.1194 71.4288 11.486C71.9102 12.8506 72.2305 14.6857 72.3795 16.9597C72.6772 21.5034 72.284 27.6702 71.2479 35.0379C69.1768 49.7646 64.552 69.1853 57.8603 89.8024C51.1687 110.419 43.6851 128.304 37.0008 140.553C33.6567 146.681 30.5243 151.376 27.8034 154.299C26.4416 155.761 25.2021 156.758 24.1093 157.277C23.015 157.797 22.1274 157.811 21.4187 157.431C20.7101 157.05 20.0939 156.228 19.6118 154.861C19.1304 153.497 18.8102 151.662 18.6612 149.388C18.3634 144.844 18.7566 138.677 19.7928 131.309C21.8638 116.583 26.4886 97.1619 33.1803 76.5449Z" stroke="white"/>
<path d="M37.2533 76.5444C43.945 55.9274 51.4285 38.0423 58.1128 25.7937C61.4569 19.6658 64.5894 14.9704 67.3103 12.0482C68.672 10.5858 69.9116 9.58853 71.0043 9.06955C72.0986 8.54982 72.9863 8.53553 73.6949 8.9162C74.4036 9.29686 75.0197 10.119 75.5018 11.4855C75.9832 12.8501 76.3035 14.6852 76.4525 16.9592C76.7502 21.5029 76.357 27.6698 75.3209 35.0374C73.2498 49.7641 68.625 69.1848 61.9333 89.8019C55.2417 110.419 47.7581 128.304 41.0738 140.553C37.7297 146.68 34.5973 151.376 31.8764 154.298C30.5146 155.76 29.2751 156.758 28.1823 157.277C27.088 157.796 26.2004 157.811 25.4917 157.43C24.7831 157.049 24.1669 156.227 23.6848 154.861C23.2034 153.496 22.8832 151.661 22.7342 149.387C22.4364 144.843 22.8296 138.677 23.8658 131.309C25.9368 116.582 30.5616 97.1614 37.2533 76.5444Z" stroke="white"/>
<path d="M41.3263 76.5444C48.018 55.9274 55.5015 38.0423 62.1858 25.7937C65.5299 19.6658 68.6624 14.9704 71.3833 12.0482C72.745 10.5858 73.9846 9.58853 75.0773 9.06955C76.1716 8.54982 77.0593 8.53553 77.7679 8.9162C78.4766 9.29686 79.0927 10.119 79.5748 11.4855C80.0562 12.8501 80.3765 14.6852 80.5255 16.9592C80.8232 21.5029 80.43 27.6698 79.3939 35.0374C77.3228 49.7641 72.698 69.1848 66.0063 89.8019C59.3147 110.419 51.8311 128.304 45.1468 140.553C41.8027 146.68 38.6703 151.376 35.9494 154.298C34.5876 155.76 33.3481 156.758 32.2553 157.277C31.161 157.796 30.2734 157.811 29.5647 157.43C28.8561 157.049 28.2399 156.227 27.7578 154.861C27.2764 153.496 26.9562 151.661 26.8072 149.387C26.5094 144.843 26.9026 138.677 27.9387 131.309C30.0098 116.582 34.6346 97.1614 41.3263 76.5444Z" stroke="white"/>
</svg>
